<svg width="335" height="201" viewBox="0 0 335 201" fill="none" xmlns="http://www.w3.org/2000/svg">
<path fill-rule="evenodd" clip-rule="evenodd" d="M321.76 5.40069L327.936 18.4007L328.964 35.9007L333.67 40.6904L325.004 57.4007L325.464 61.4007L321.76 87.9007L323.464 87.9007L323.464 90.4007L320.465 90.9007L320.465 92.4007L316.464 92.4007L317.883 105.159L316.464 117.401L296.964 124.401L280.645 129.381L273.464 129.381L267.964 131.401L262.465 129.381L259.586 132.544L253.964 133.901L246.464 136.401L243.964 139.401L229.964 143.901L220.964 146.901L221.464 150.401L217.464 151.401L210.464 148.901L202.464 143.401L179.464 134.401L162.464 128.401L152.464 128.401L142.464 131.401L143.464 136.401L140.464 141.401L137.964 142.901L112.464 164.901L105.464 170.401L99.4645 177.401L95.4645 180.401L94.4645 184.401L94.4645 188.401L87.9645 190.401L70.4645 199.401L69.4645 196.401L69.4645 194.401L60.9645 181.901L62.4645 178.401L62.4645 169.401L60.4645 169.401L58.4645 170.401L52.4645 170.401L48.4645 165.901L45.9645 155.901L45.4645 151.901L46.4645 147.901L46.4645 145.401L41.4645 141.401L38.9645 141.401L34.9645 142.401L25.4645 142.401L20.9645 141.401L18.9645 140.401L9.4645 135.401L11.4645 132.401L13.4645 125.401L11.9645 122.901L3.46449 123.401L10.4645 117.401L6.31259 103.653L3.46449 101.901L2.46455 100.401L3.46454 95.9007L8.38474 94.4007L11.4646 87.4007L12.3166 86.4007L12.3166 83.9007L14.4646 81.9007L14.4646 79.9007L13.4646 77.9007L10.9646 71.9007L23.4646 66.9007L22.4646 64.4007L20.4646 65.4007L19.4646 64.4007L16.9646 63.9007L14.9646 59.9007L14.5501 55.4007L13.4646 52.4007L18.4646 51.4007L17.4646 45.9007L21.4646 38.4007L21.4646 32.9007L24.4646 30.4007L26.9646 29.9007L31.9646 29.4007L35.9828 37.0293L39.4646 43.9007L41.9646 42.4007L45.4646 49.9007L48.1226 47.4979L52.4646 46.9007L55.9646 43.4007L59.4646 41.9007L62.4646 32.4007L65.4646 32.4007L68.9646 33.9007L71.4646 31.9007L75.9646 23.4007L77.9646 23.9007L81.9646 24.9007L82.9646 29.4007L89.9646 29.4007L98.4646 26.2195L103.465 27.4007L103.465 32.4007L120.965 32.4007L122.965 33.9007L120.743 38.3912L116.465 47.9007L123.465 54.9007L129.965 51.4007L135.965 46.9007L138.965 46.4007L141.465 44.9007L142.465 40.9007L144.965 38.9007L148.965 39.9007L150.965 34.9007L150.965 29.4007L159.965 25.9007L165.465 22.9007L166.965 9.90071L171.464 2.28929L201.464 14.9007L204.964 14.4007L208.964 15.9007L210.964 13.9007L228.964 14.4007L229.464 15.4007L229.464 20.4007L231.464 48.9007L230.964 51.9007L232.464 53.4007L238.964 53.9007L249.464 58.4007L258.464 60.4007L266.464 60.4007L273.964 61.4007L276.464 62.9007L288.464 62.9007L289.464 61.4007L290.464 51.9007L292.464 43.9007L292.964 38.9007L295.964 29.9007L299.964 22.4007L308.464 13.9007L315.964 1.90069L321.76 5.40069Z" fill="black" stroke="white" stroke-width="1.99937"/>
</svg>
