<?xml version="1.0" encoding="utf-8"?>
<!-- Generator: Adobe Illustrator 24.1.1, SVG Export Plug-In . SVG Version: 6.00 Build 0)  -->
<svg version="1.1" id="Warstwa_1" xmlns="http://www.w3.org/2000/svg" xmlns:xlink="http://www.w3.org/1999/xlink" x="0px" y="0px"
	 viewBox="0 0 337.4 797.5" style="enable-background:new 0 0 337.4 797.5;" xml:space="preserve"  width="337.4" height="797.5">
<style type="text/css">
	.st0{fill-rule:evenodd;clip-rule:evenodd;fill:#F5F5F5;}
</style>
<g id="Layer_1">
	<g>
		<polygon class="st0" points="0.7,183.8 28.4,180.8 37.9,238.4 0.2,269.2 		"/>
		<polygon class="st0" points="18.1,78.5 30.1,84.7 39.2,64.3 22.2,51 		"/>
		<polygon class="st0" points="35.9,91.9 19.7,89.6 27.4,136.5 39.2,140.1 37.9,107.2 		"/>
		<polygon class="st0" points="0.4,144.5 22.1,146 26.9,175.1 0.2,178 		"/>
		<polygon class="st0" points="0.6,79.1 12.7,85.5 20.9,135.2 0.2,133.8 		"/>
		<polygon class="st0" points="0.4,43.9 14.4,51.1 12.1,75.4 0.2,69.5 		"/>
		<polygon class="st0" points="0.2,0 34.2,0 15,43.4 14.9,43.4 0.2,35.9 0.4,12.2 		"/>
		<polygon class="st0" points="15.2,264.6 0.2,276.8 0.2,316.4 14.9,311.5 15.1,311.6 35.9,290.7 		"/>
		<polygon class="st0" points="0.2,557.9 13.8,546.7 32.9,570.3 14,589.6 13.9,589.5 0.2,601.2 		"/>
		<polygon class="st0" points="0.2,437.1 20,438.3 24.6,464.9 0.2,467.6 		"/>
		<polygon class="st0" points="0.2,381.8 11.3,387.5 19.1,432.9 0.2,431.7 		"/>
		<polygon class="st0" points="13.6,316.4 33.7,345.4 33.7,363.9 24.1,384.9 0.2,375.1 0.2,323 11.4,319.4 		"/>
		<polygon class="st0" points="19.3,790.8 31.3,753.8 0.1,754.7 0.1,797.5 		"/>
		<polygon class="st0" points="32.2,747.4 30.2,726.7 30.1,726.6 0.1,725.8 0.1,748.2 		"/>
		<polygon class="st0" points="25.9,720 15.8,704.5 0.1,704.4 0.1,719.3 		"/>
		<polygon class="st0" points="24.5,673.9 6.9,641.6 0.1,646.9 0.1,674.7 		"/>
		<polygon class="st0" points="16.1,698.1 19.2,680.5 0.1,681.1 0.1,698 		"/>
		<polygon class="st0" points="58.5,143.6 28.7,144.5 64.2,166.6 		"/>
		<polygon class="st0" points="219.1,549.2 261.2,580.3 266.7,565.5 231.2,537.3 		"/>
		<polygon class="st0" points="205,469.6 189.7,456.6 178.8,468.2 192.4,483 		"/>
		<polygon class="st0" points="196.6,537 209.5,549.6 226.1,533.3 210.4,520.9 		"/>
		<polygon class="st0" points="236.4,481.9 235.6,481.1 217.3,493.7 214.4,506.7 		"/>
		<polygon class="st0" points="257.3,502.2 241,486.4 214.6,516 230.8,528.8 257,503.1 		"/>
		<polygon class="st0" points="191,444.2 157,444.5 173.6,462.6 		"/>
		<polygon class="st0" points="151.6,448.2 126.3,472.9 168.7,506.5 187.2,486.8 		"/>
		<polygon class="st0" points="331.5,691.8 311.6,689.1 308.6,704.8 328.1,709.9 		"/>
		<polygon class="st0" points="71.1,714.7 89.8,722.1 96.4,707.6 78.7,698 		"/>
		<polygon class="st0" points="190.2,418.4 170.3,415.8 167.3,431.4 186.9,436.5 		"/>
		<polygon class="st0" points="306.1,439.1 277.6,457.8 301.4,464 		"/>
		<polygon class="st0" points="275.1,463.8 267.2,498.2 321,503.6 325.9,477.1 		"/>
		<polygon class="st0" points="213.7,552.7 190.2,579.1 234.9,609.6 251.9,588.7 		"/>
		<g>
			<polygon class="st0" points="127.5,560.3 180,577.7 180,577.7 180.1,577.7 180.5,577.8 204.9,554.1 191.6,541.1 153.4,560.1
				151.9,560.8 150.5,560 128.9,549.2 121.9,556 			"/>
			<polygon class="st0" points="151.9,553.6 186.8,536.4 164.5,514.6 133.7,544.5 			"/>
			<polygon class="st0" points="192,532.5 205.5,516.8 205.5,516.6 185.2,494.5 169.1,510.2 			"/>
			<polygon class="st0" points="207.2,509 211.3,490.9 200.5,479.6 189.8,490 			"/>
			<path class="st0" d="M255.8,433.8c2.7,4.7,1.9,4.5,0.2,10l-11.5,37l15,14.5l18.2-57.1l-14.1-20l-15.9,15.5L255.8,433.8z"/>
			<polygon class="st0" points="239.3,475.8 250.2,440.7 241.7,439.5 221.8,458.9 			"/>
			<polygon class="st0" points="216.2,486.7 230.9,476.6 217.2,463.3 205.1,475.1 			"/>
		</g>
		<polygon class="st0" points="116.1,233.3 103.5,211.7 81.2,229.9 102.5,253.9 		"/>
		<polygon class="st0" points="302.6,372.1 314.7,394 337.4,376.4 316.8,351.8 		"/>
		<polygon class="st0" points="253,363.8 238.7,343.3 218,363.2 241.1,385.4 		"/>
		<polygon class="st0" points="302.3,417.7 288,397.1 267.2,417.1 290.4,439.3 		"/>
		<polygon class="st0" points="131.6,248.2 145.6,232.5 135.9,214.2 123,233.5 		"/>
		<polygon class="st0" points="264,689.1 278,673.5 268.3,655.1 255.5,674.5 		"/>
		<polygon class="st0" points="101.2,132.8 108.5,110.6 90.3,101.2 83.6,131.5 		"/>
		<polygon class="st0" points="99,161 100.4,138.6 64.7,136.1 69.3,164.2 		"/>
		<polygon class="st0" points="123.8,187.5 101.9,166.6 70.2,170 79.1,224 		"/>
		<path class="st0" d="M137.7,200.9l-9.6-9.2l-20,16.3l11.6,19.9c5.6-8.5,10.8-16.9,16.6-25.1l0,0l0,0L137.7,200.9L137.7,200.9z"/>
		<polygon class="st0" points="200.7,605.5 185.2,585.9 165.7,607 190.1,627.8 		"/>
		<polygon class="st0" points="279.5,594 259.7,587.2 246.5,603.3 269.3,607.6 		"/>
		<path class="st0" d="M178.4,671.8l-10.8-7.8l-17.5,19l14.3,18.1c4.4-9.2,8.3-18.3,12.9-27.2l0,0l0,0L178.4,671.8L178.4,671.8z"/>
		<polygon class="st0" points="299.5,680.3 311.1,662.8 299,646 289,667 		"/>
		<path class="st0" d="M298.9,632.6l-10.8-7.8l-17.5,18.9l14.3,18.1c4.4-9.2,8.3-18.3,12.9-27.2l0,0l0,0L298.9,632.6L298.9,632.6z"
			/>
		<polygon class="st0" points="54,68.3 66,74.5 75.2,54.1 58.2,40.8 		"/>
		<polygon class="st0" points="84.5,94.5 55.6,79.5 63.3,126.3 77.3,127.3 		"/>
		<polygon class="st0" points="72.9,517.3 53.9,533.1 119.1,608.8 137.2,588.9 		"/>
		<polygon class="st0" points="108.9,516.9 97.3,497.2 77.1,513.9 96.6,535.7 		"/>
		<polygon class="st0" points="94.7,425.2 101.3,405 84.7,396.5 78.7,424.2 		"/>
		<polygon class="st0" points="92.9,451 94.1,430.6 61.4,428.5 65.8,454.1 		"/>
		<path class="st0" d="M128.5,487.1l-8.8-8.3l-18.1,15l10.7,18.1c5.1-7.8,9.7-15.5,15-23l0,0l0,0L128.5,487.1L128.5,487.1z"/>
		<polygon class="st0" points="64.9,380.4 81.7,389 117.5,354.6 106.5,340.9 74.7,358.3 		"/>
		<path class="st0" d="M67.4,605.4c4.4,3,4.3,2.8,7,7.9L90,642.6l26.3-29l-42.5-49.8l-30.6,29.6v7.1L67.4,605.4z"/>
		<polygon class="st0" points="56.8,125.1 48.6,75.3 43.2,72.5 43.2,124.1 		"/>
		<polygon class="st0" points="48,65.2 50.3,40.9 43.2,37.3 43.2,62.8 		"/>
		<polygon class="st0" points="50.9,301.3 51,301.5 71.8,280.5 51.1,254.4 24.5,259.4 43.2,290.5 		"/>
		<polygon class="st0" points="49.8,579.3 49.9,579.4 68.8,560.2 49.8,536.5 32.9,550.4 43.2,585 		"/>
		<polygon class="st0" points="27.1,526.9 18.1,474.4 0,476.5 0,549.3 		"/>
		<polygon class="st0" points="60.5,456.7 55.9,430.2 43.2,429.4 43.2,458.7 		"/>
		<polygon class="st0" points="55,422.7 41.3,377.3 34.2,375.3 28.7,391.6 		"/>
		<polygon class="st0" points="60,374.8 69.6,353.7 69.6,335.2 52.9,309.2 47.3,309.2 39.2,337.6 43.2,367.8 		"/>
		<polygon class="st0" points="58,670.5 38.9,686.2 58.9,710 77,690.1 		"/>
		<polygon class="st0" points="37,694.6 37,766.6 51.9,712.7 		"/>
		<polygon class="st0" points="190.8,638.6 167.7,653.7 138.6,657.7 153.7,624.3 169.1,619 		"/>
		<polygon class="st0" points="147.7,624.6 131.8,656.4 105.9,633.7 		"/>
		<polygon class="st0" points="159.7,611.3 149.4,621.7 116.8,621.7 142.1,593.7 		"/>
		<polygon class="st0" points="245.5,395 260.6,414.9 280.5,394.2 256.5,372.9 		"/>
		<polygon class="st0" points="141.8,97.2 129.8,114.4 141.7,131.5 152.1,110.7 		"/>
		<polygon class="st0" points="256.1,362.1 279.5,347.4 308.7,344 292.9,377.2 277.4,382.1 		"/>
		<polygon class="st0" points="210.1,309.8 184.6,320.4 155.3,318.9 176.4,288.8 192.4,286.5 		"/>
		<polygon class="st0" points="170.3,288 148.8,316.3 127.7,289.2 		"/>
		<polygon class="st0" points="184.6,277.2 172.6,285.5 140.5,279.4 170.6,256.6 		"/>
		<polygon class="st0" points="118.4,551.3 159.3,510 133.3,488 101.3,538 		"/>
		<polygon class="st0" points="118.4,471.3 101.3,452 101.5,430.7 133.2,431.3 135.2,454.1 		"/>
		<path class="st0" d="M90,391.2l13.9,7.8c0,0,19.4-40.7,17.9-39.8S90,391.2,90,391.2z"/>
		<polygon class="st0" points="107.7,407 101.5,425.2 133.6,425.8 		"/>
		<polygon class="st0" points="137.2,419.1 108.9,400.3 125.6,367 145.6,396.5 		"/>
		<polygon class="st0" points="73.8,349.9 73.8,335.2 98.7,328.6 103.1,339.2 		"/>
		<polygon class="st0" points="70.3,328.6 56.8,306.8 77.1,285.4 97,313 97,322.3 		"/>
		<polygon class="st0" points="76.9,279.2 55,253.2 76.9,232.8 97,257.9 		"/>
		<polygon class="st0" points="90.2,766.2 66.5,721.6 60.5,720.7 77,769.6 		"/>
		<polygon class="st0" points="109.7,670.8 113.4,644.1 101.5,639.5 92.7,667.4 		"/>
		<polygon class="st0" points="83.6,285.4 101.3,263.2 117.5,287.2 100.4,307 		"/>
		<polygon class="st0" points="103.1,319.7 121.5,290.3 140.3,314.8 		"/>
		<polygon class="st0" points="106,328.6 121.5,349.9 149.4,330.8 140.3,319.7 		"/>
		<polygon class="st0" points="281,612.6 259.4,640.8 238.3,613.7 		"/>
		<polygon class="st0" points="320.9,728.9 309,737.2 276.9,731.1 307,708.3 		"/>
		<polygon class="st0" points="262,274.5 236.6,285.1 207.2,283.6 228.3,253.5 244.3,251.3 		"/>
		<polygon class="st0" points="222.3,252.8 200.7,281.1 179.6,253.9 		"/>
		<polygon class="st0" points="171,176.8 159.1,185.1 127,179 157.1,156.2 		"/>
		<polygon class="st0" points="270.4,578.9 288.8,549.5 307.6,574 		"/>
		<polygon class="st0" points="197.4,636.3 212.9,657.7 240.8,638.6 231.7,627.4 		"/>
		<polygon class="st0" points="106,158.8 106,140.1 140.3,141.9 139.7,157 118.6,170.6 		"/>
		<polygon class="st0" points="57.5,463.3 24.5,475 32.9,541.1 68.8,511.9 		"/>
		<polygon class="st0" points="30,156.2 37.9,195.3 67.4,191.7 61.4,170.6 		"/>
		<polygon class="st0" points="66.5,200.2 39.2,204.9 46.8,244.2 73.8,227.8 		"/>
		<polygon class="st0" points="45.1,422.7 26.9,435.2 18,393.9 23.1,391.2 		"/>
		<polygon class="st0" points="36.1,296.9 19.7,316.3 34.2,334.8 43.2,303.4 		"/>
		<polygon class="st0" points="37.9,439.3 25.9,444 32.9,461.1 		"/>
		<polygon class="st0" points="32.9,578.9 0,612.6 0.2,638.4 37.9,615.8 37.9,587.2 		"/>
		<polygon class="st0" points="35.9,624.8 13,640.5 43.2,668 67.4,667.2 45.1,619 		"/>
		<polygon class="st0" points="94.1,456.8 108.9,475.8 73.8,509 64.9,462.6 		"/>
		<polygon class="st0" points="77.8,394.5 49.8,379.8 58.5,420.7 71.8,423.2 		"/>
	</g>
</g>
<g id="v">
</g>
</svg>
