<?xml version="1.0" encoding="utf-8"?>
<!-- Generator: Adobe Illustrator 24.1.1, SVG Export Plug-In . SVG Version: 6.00 Build 0)  -->
<svg version="1.1" id="Warstwa_1" xmlns="http://www.w3.org/2000/svg" xmlns:xlink="http://www.w3.org/1999/xlink" x="0px" y="0px"
	 viewBox="0 0 324.5 854.6" style="enable-background:new 0 0 324.5 854.6;" xml:space="preserve"  width="324.5" height="854.6">
<style type="text/css">
	.st0{fill-rule:evenodd;clip-rule:evenodd;fill:#F5F5F5;}
</style>
<g id="Layer_1">
	<g>
		<polygon class="st0" points="237,28.6 239.3,4.3 232.2,0.7 232.2,26.2 		"/>
		<polygon class="st0" points="66.7,382.3 80.6,366.6 70.9,348.3 58.1,367.6 		"/>
		<polygon class="st0" points="102.1,373.4 113.8,356 101.6,339.2 91.6,360.1 		"/>
		<path class="st0" d="M101.5,325.8L90.7,318l-17.5,18.9L87.5,355c4.4-9.2,8.3-18.3,12.9-27.2l0,0l0,0L101.5,325.8L101.5,325.8z"/>
		<polygon class="st0" points="83.6,305.7 62.1,334 40.9,306.8 		"/>
		<polygon class="st0" points="0,329.5 15.5,350.8 43.4,331.7 34.3,320.6 		"/>
		<polygon class="st0" points="148.7,262.5 106.6,231.4 101,246.2 136.5,274.3 		"/>
		<polygon class="st0" points="153.3,357.4 168.6,370.4 179.5,358.8 165.9,344 		"/>
		<polygon class="st0" points="171.1,274.6 158.3,262.1 141.6,278.4 157.3,290.8 		"/>
		<polygon class="st0" points="131.3,329.7 132.2,330.5 150.4,318 153.4,305 		"/>
		<polygon class="st0" points="110.4,309.5 126.7,325.3 153.1,295.7 137,282.9 110.7,308.5 		"/>
		<polygon class="st0" points="167.3,382.8 201.3,382.5 184.7,364.4 		"/>
		<polygon class="st0" points="206.7,378.8 231.9,354.1 189.6,320.5 171.1,340.2 		"/>
		<polygon class="st0" points="282.2,89.1 262.7,84.5 258.1,99.7 277,106.8 		"/>
		<polygon class="st0" points="258.2,72.8 228,88.4 251,97 		"/>
		<polygon class="st0" points="224.9,94.1 213.5,127.5 266.4,138.4 274.1,112.6 		"/>
		<polygon class="st0" points="240.2,251.4 187.7,234 187.7,234 187.7,234 187.2,233.8 162.9,257.6 176.1,270.5 214.4,251.6
			215.8,250.9 217.2,251.6 238.9,262.4 245.8,255.7 		"/>
		<polygon class="st0" points="215.8,258.1 181,275.3 203.3,297 234,267.2 		"/>
		<polygon class="st0" points="175.7,279.1 162.3,294.9 162.2,295.1 182.6,317.2 198.7,301.5 		"/>
		<polygon class="st0" points="160.5,302.7 156.4,320.7 167.2,332.1 178,321.7 		"/>
		<path class="st0" d="M288,18.4c1.4,5.2,0.7,4.8-2.4,9.7L265,60.9l10.8,17.9L308,28.3l-8.5-23l-19.3,10.9L288,18.4z"/>
		<polygon class="st0" points="151.6,325 136.9,335.1 150.5,348.3 162.6,336.6 		"/>
		<polygon class="st0" points="251.6,578.4 264.3,600 286.5,581.8 265.3,557.8 		"/>
		<polygon class="st0" points="236.1,563.5 222.2,579.2 231.9,597.5 244.7,578.2 		"/>
		<polygon class="st0" points="266.6,678.9 259.2,701 277.4,710.5 284.1,680.1 		"/>
		<polygon class="st0" points="268.7,650.7 267.3,673.1 303.1,675.5 298.5,647.5 		"/>
		<polygon class="st0" points="243.9,624.1 265.8,645.1 297.5,641.7 288.7,587.7 		"/>
		<path class="st0" d="M230,610.8l9.6,9.2l20-16.3L248,583.8c-5.6,8.5-10.8,16.9-16.6,25.1l0,0l0,0L230,610.8L230,610.8z"/>
		<polygon class="st0" points="167,206.2 182.5,225.8 202.1,204.7 177.6,183.9 		"/>
		<polygon class="st0" points="210.6,62.6 223.1,84.2 245.5,66.1 224.3,42.1 		"/>
		<polygon class="st0" points="149.6,193.7 138,211.1 150.1,227.9 160.1,207 		"/>
		<path class="st0" d="M150.2,241.3l10.8,7.8l17.5-18.9l-14.3-18.1c-4.4,9.2-8.3,18.3-12.9,27.2l0,0l0,0L150.2,241.3L150.2,241.3z"
			/>
		<polygon class="st0" points="313.7,743.3 301.8,737.2 292.6,757.5 309.6,770.9 		"/>
		<polygon class="st0" points="283.2,717.2 312.1,732.2 304.4,685.4 290.4,684.4 		"/>
		<polygon class="st0" points="294.8,294.3 313.8,278.6 248.6,202.8 230.6,222.7 		"/>
		<polygon class="st0" points="258.8,294.8 270.4,314.4 290.7,297.7 271.1,276 		"/>
		<polygon class="st0" points="288,417.7 314.5,431.3 307.2,388.6 294.4,387.8 		"/>
		<polygon class="st0" points="273,386.5 266.4,406.7 283.1,415.2 289,387.5 		"/>
		<polygon class="st0" points="274.8,360.7 273.7,381.1 306.3,383.2 301.9,357.6 		"/>
		<polygon class="st0" points="252.1,336.6 272.1,355.6 301,352.3 292.6,303.1 		"/>
		<path class="st0" d="M239.3,324.5l8.8,8.3l18.1-15l-10.7-18.1c-5.1,7.8-9.7,15.5-15,23l0,0l0,0L239.3,324.5L239.3,324.5z"/>
		<polygon class="st0" points="302.8,431.3 286,422.7 250.2,457 261.2,470.8 293,453.4 		"/>
		<path class="st0" d="M300.3,206.3c-4.4-3-4.3-2.8-7-7.9l-15.7-29.3l-26.3,29l42.5,49.8l30.6-29.6v-7.1L300.3,206.3z"/>
		<path class="st0" d="M318.9,185.5c-5.2-1.3-4.6-1.8-7.3-6.8l-18.5-34.1l-20.9,0.6l28.3,52.9l24,3.8v-22L318.9,185.5z"/>
		<polygon class="st0" points="300.3,144.4 317.9,176.7 324.5,171.6 324.5,143.7 		"/>
		<polygon class="st0" points="293.9,583.4 303.4,641 324.5,638.7 324.5,558.4 		"/>
		<polygon class="st0" points="304.9,646.7 309.7,675.8 324.5,676.8 324.5,644.6 		"/>
		<polygon class="st0" points="310.9,686.6 319.1,736.4 324.5,739.2 324.5,687.5 		"/>
		<polygon class="st0" points="319.7,746.5 317.4,770.8 324.5,774.4 324.5,748.8 		"/>
		<polygon class="st0" points="316.9,778.4 316.9,778.4 297.7,821.8 324.5,812.2 324.5,782.3 		"/>
		<polygon class="st0" points="316.9,510.3 316.8,510.2 296,531.2 316.6,557.3 324.5,550.8 324.5,507.8 		"/>
		<polygon class="st0" points="317.9,232.4 317.8,232.2 299,251.5 318,275.2 324.5,269.8 324.5,226.7 		"/>
		<polygon class="st0" points="297.4,299.1 306.4,351.7 324.5,349.6 324.5,276.7 		"/>
		<polygon class="st0" points="307.3,357 311.8,383.5 324.5,384.3 324.5,355 		"/>
		<polygon class="st0" points="312.7,388.9 320.5,434.3 324.5,436.4 324.5,389.7 		"/>
		<polygon class="st0" points="307.7,436.9 298.1,457.9 298.1,476.4 314.9,502.4 320.5,502.4 324.5,501.1 324.5,443.8 		"/>
		<polygon class="st0" points="303.5,96.1 322.6,80.4 302.6,56.5 284.6,76.4 		"/>
		<polygon class="st0" points="324.5,138.4 272.2,138.4 286.5,103.3 306.3,103.3 318.6,88.9 324.5,88.9 		"/>
		<polygon class="st0" points="324.5,72 324.5,0 309.6,53.9 		"/>
		<polygon class="st0" points="177,173.1 200,157.9 229.1,154 214,187.4 198.7,192.7 		"/>
		<polygon class="st0" points="154.1,132.8 141.2,120.2 124.6,136.5 140.3,149 		"/>
		<polygon class="st0" points="114.3,187.9 115.1,188.7 133.4,176.1 136.4,163.2 		"/>
		<polygon class="st0" points="199.6,41.8 200.4,42.6 218.6,30 221.6,17 		"/>
		<polygon class="st0" points="180.2,755.2 196.5,771 222.9,741.4 206.7,728.7 180.5,754.3 		"/>
		<polygon class="st0" points="158.7,137.3 145.3,153.1 145.2,153.2 165.5,175.3 181.7,159.7 		"/>
		<polygon class="st0" points="143.5,160.8 139.4,178.9 150.2,190.2 160.9,179.8 		"/>
		<polygon class="st0" points="168.5,135.9 184,155.6 203.6,134.4 179.1,113.7 		"/>
		<polygon class="st0" points="191.2,500.6 179.6,518.1 191.8,534.9 201.8,514 		"/>
		<path class="st0" d="M202.9,534.5l10.8,7.8l17.5-18.9l-14.3-18.1c-4.4,9.2-8.3,18.3-12.9,27.2l0,0l0,0L202.9,534.5L202.9,534.5z"
			/>
		<polygon class="st0" points="247.9,827.1 248.7,848.1 268.4,854.6 264.2,831.7 		"/>
		<path class="st0" d="M244.7,50.1l10.8,7.8l17.5-19l-14.3-18.1c-4.4,9.2-8.3,18.3-12.9,27.2l0,0l0,0L244.7,50.1L244.7,50.1z"/>
		<polygon class="st0" points="168.2,412.4 191.2,397.3 220.4,393.3 205.2,426.8 189.9,432 		"/>
		<polygon class="st0" points="208.1,200.3 218.3,190 251,190 225.6,218 		"/>
		<polygon class="st0" points="249.4,260.3 208.5,301.7 234.5,323.7 266.4,273.7 		"/>
		<polygon class="st0" points="249.4,340.3 266.4,359.7 266.2,381 234.6,380.3 231.8,349 		"/>
		<path class="st0" d="M277.7,420.4l-13.9-7.8c0,0-19.4,40.7-17.9,39.8C247.4,451.6,277.7,420.4,277.7,420.4z"/>
		<polygon class="st0" points="260,404.7 266.2,386.5 234.1,385.9 		"/>
		<polygon class="st0" points="230.6,392.6 258.8,411.3 242.1,444.7 222.2,415.2 		"/>
		<polygon class="st0" points="293.9,461.8 293.9,476.4 269.1,483.1 264.7,472.4 		"/>
		<polygon class="st0" points="297.4,483.1 310.9,504.9 290.7,526.2 270.7,498.7 270.7,489.3 		"/>
		<polygon class="st0" points="290.8,532.5 312.7,558.4 290.8,578.9 270.7,553.8 		"/>
		<polygon class="st0" points="284.1,526.2 266.4,548.4 250.2,524.4 267.3,504.7 		"/>
		<polygon class="st0" points="264.7,492 246.2,521.3 227.5,496.9 		"/>
		<polygon class="st0" points="261.8,483.1 246.2,461.8 218.4,480.9 227.5,492 		"/>
		<polygon class="st0" points="89.6,201.5 103.2,223.3 82.9,244.6 63,217.1 63,207.7 		"/>
		<polygon class="st0" points="76.3,244.6 58.7,266.9 42.5,242.9 59.6,223.1 		"/>
		<polygon class="st0" points="56.9,210.4 38.5,239.7 19.7,215.3 		"/>
		<polygon class="st0" points="54,201.5 38.5,180.2 10.6,199.3 19.7,210.4 		"/>
		<polygon class="st0" points="261.8,652.9 261.8,671.6 227.5,669.8 228,654.7 249.1,641 		"/>
		<polygon class="st0" points="236.4,733.3 256.6,685 240.9,683.1 222,724.4 		"/>
		<polygon class="st0" points="303.4,779.1 287.8,801.9 262.4,816.6 263.7,779.9 275.9,769.3 		"/>
		<polygon class="st0" points="90,296.5 56.9,286.4 75.5,261.8 		"/>
		<polygon class="st0" points="97.8,291.3 114.3,270.7 88.5,248.9 80.2,260.6 		"/>
		<polygon class="st0" points="133.5,549 175.6,580.2 181.2,565.3 145.6,537.2 		"/>
		<polygon class="st0" points="235.2,634.1 209.7,644.7 180.4,643.2 201.4,613.2 217.5,610.9 		"/>
		<polygon class="st0" points="195.4,612.4 173.9,640.7 152.7,613.5 		"/>
		<polygon class="st0" points="209.7,601.6 197.7,609.9 165.6,603.8 195.7,581 		"/>
		<polygon class="st0" points="128.1,644 146.6,614.7 165.4,639.2 		"/>
		<polygon class="st0" points="131.1,652.9 146.6,674.3 174.4,655.2 165.4,644 		"/>
	</g>
</g>
<g id="v">
</g>
</svg>
