<svg width="33" height="32" viewBox="0 0 33 32" fill="none" xmlns="http://www.w3.org/2000/svg">
<path d="M28.0103 13.6243V9.75622V6.49459H24.4836V9.75622L28.0103 13.6243Z" fill="white"/>
<path d="M28.0103 13.6243L24.4836 9.75622L16.5 1L1 18H4.875H28.125H32L28.0103 13.6243Z" fill="white"/>
<path d="M28.125 31V18H4.875V31H13.5937V27V23H16.5H19.4062V27V31H28.125Z" fill="white"/>
<path d="M28.125 18V31H19.4062V27V23H16.5H13.5937V27V31H4.875V18M28.125 18H4.875M28.125 18H32M4.875 18H1M28.0103 13.6243L24.4836 9.75622M28.0103 13.6243V9.75622V6.49459H24.4836V9.75622M28.0103 13.6243L32 18M24.4836 9.75622L16.5 1M32 18H1M32 18L16.5 1M1 18L16.5 1" stroke="white" stroke-width="0.6"/>
</svg>
