<svg width="260" height="50" viewBox="0 0 260 50" fill="none" xmlns="http://www.w3.org/2000/svg">
<path fill-rule="evenodd" clip-rule="evenodd" d="M242.058 34.5C243.036 37.3 244.015 40 244.994 42.5H250.431C251.192 40.9 251.953 39.2 252.823 37.2C253.03 36.6562 253.245 36.1051 253.464 35.5445C254.049 34.0433 254.661 32.4747 255.215 30.8C255.476 30.0117 255.75 29.2117 256.028 28.3999C256.56 26.8432 257.107 25.2432 257.608 23.6C257.923 22.564 258.257 21.5107 258.595 20.4475L258.595 20.4459C259.072 18.9439 259.554 17.422 260 15.9H253.041C252.714 17.3 252.279 18.9 251.844 20.5C251.758 20.8161 251.673 21.1361 251.586 21.4592L251.585 21.4612C251.233 22.773 250.867 24.1365 250.431 25.5C250.191 26.2495 249.972 26.999 249.756 27.7399C249.482 28.6795 249.212 29.6054 248.908 30.5C248.717 31.0624 248.54 31.6124 248.366 32.1501C248.045 33.1421 247.739 34.0921 247.386 35L245.755 30.2C245.483 29.35 245.238 28.525 244.994 27.7C244.749 26.875 244.504 26.05 244.233 25.2C243.798 23.5021 243.364 21.9039 242.929 20.3058L242.928 20.3C242.585 19.0382 242.309 17.8386 242.048 16.7011L242.048 16.7001C241.978 16.3956 241.909 16.0956 241.84 15.8H236.729C236.605 16.3354 236.464 16.8853 236.32 17.45C236.086 18.3618 235.843 19.3118 235.642 20.3C235.207 21.9 234.772 23.5 234.228 25.2C233.874 26.583 233.449 27.8998 233.009 29.2581C232.909 29.5695 232.807 29.883 232.706 30.2C232.162 31.9 231.619 33.5 231.075 35C230.531 33.6 229.987 32.2 229.552 30.5C229.248 29.6054 228.978 28.6795 228.704 27.7399C228.488 26.999 228.27 26.2495 228.03 25.5C227.779 24.5178 227.491 23.5356 227.209 22.5726L227.209 22.5707C227.003 21.8677 226.8 21.1749 226.616 20.5C226.181 18.9 225.747 17.3 225.42 15.9H218.57C219.331 18.5 220.092 21.1 220.962 23.6C221.57 25.3485 222.126 27.0481 222.665 28.6988L222.665 28.7001L222.667 28.7041C222.898 29.4117 223.126 30.1104 223.354 30.8C223.908 32.4746 224.52 34.0432 225.106 35.5443C225.325 36.1049 225.54 36.6562 225.747 37.2C226.285 38.6154 226.878 39.9306 227.41 41.1102C227.63 41.5974 227.839 42.0615 228.03 42.5H233.576C234.555 40 235.533 37.3 236.512 34.5C237.491 31.7 238.361 28.8 239.23 25.8C240.1 28.8 241.079 31.7 242.058 34.5ZM205.412 1.4L197.256 10.3L200.627 13.1L209.653 5.1L205.412 1.4ZM207.696 35.5C205.521 38.1 201.389 38.6 198.561 36.6C198.126 36.3 197.691 35.9 197.365 35.5C196.06 33.6 195.408 31.4 195.517 29.1C195.408 26.9 196.06 24.7 197.365 22.8C199.649 20.2 203.781 19.7 206.608 21.8C207.043 22.1 207.369 22.4 207.696 22.8C209 24.7 209.653 26.9 209.544 29.1C209.653 31.4 209 33.7 207.696 35.5ZM215.307 23.5C214.655 21.9 213.676 20.4 212.48 19.1C211.284 17.9 209.762 16.9 208.13 16.3C206.391 15.6 204.433 15.3 202.476 15.3C200.519 15.3 198.67 15.6 196.93 16.3C195.299 16.9 193.777 17.9 192.581 19.1C191.276 20.4 190.297 21.9 189.753 23.5C189.101 25.3 188.666 27.3 188.775 29.2C188.775 31.2 189.101 33.1 189.753 35C190.406 36.6 191.384 38.1 192.581 39.4C193.777 40.6 195.299 41.6 196.93 42.2C198.67 42.9 200.627 43.2 202.585 43.2C204.542 43.2 206.499 42.9 208.239 42.2C209.87 41.6 211.393 40.6 212.589 39.4C213.894 38.1 214.764 36.6 215.416 35C216.069 33.1 216.395 31.2 216.395 29.2C216.395 27.2 216.069 25.3 215.307 23.5ZM168.875 3L162.133 4V42.5H168.875V30.3C169.962 31 170.941 31.9 171.92 32.8C172.253 33.1408 172.599 33.4817 172.95 33.8264C173.627 34.4933 174.319 35.1749 174.964 35.9C175.943 37 176.922 38.1 177.792 39.3C178.662 40.5 179.423 41.6 180.075 42.6H187.796C187.035 41.3 186.165 40 185.295 38.8C184.607 37.8154 183.864 36.8802 183.106 35.925C182.787 35.522 182.464 35.1154 182.141 34.7C181.054 33.3 179.858 32.1 178.553 30.9C177.465 29.8 176.269 28.8 175.073 27.8C177.139 25.9 179.205 23.9 181.271 21.8C183.337 19.8 185.295 17.8 187.143 15.9H179.205C178.662 16.5 177.9 17.3 177.031 18.2L174.421 20.9C173.551 21.8 172.572 22.8 171.593 23.7C171.09 24.1632 170.615 24.6264 170.154 25.076C169.719 25.5 169.297 25.9118 168.875 26.3V3ZM138.101 15.6C136.796 15.8 135.6 16.1 134.404 16.4L135.274 21.4C136.253 21.1 137.34 20.8 138.427 20.7C139.841 20.5 141.255 20.4 142.668 20.4C143.647 20.4 144.626 20.5 145.496 20.8C146.909 21.3 147.888 22.3 148.323 23.7C148.54 24.4 148.649 25 148.649 25.7V26.7C147.779 26.5 146.909 26.4 146.039 26.3C145.278 26.2 144.517 26.2 143.756 26.2C142.233 26.2 140.711 26.3 139.189 26.6C137.775 26.9 136.47 27.3 135.383 28C134.295 28.6 133.425 29.5 132.773 30.6C132.12 31.8 131.794 33.1 131.794 34.5C131.794 35.9 132.012 37.3 132.664 38.5C133.208 39.6 133.969 40.5 135.056 41.1C136.144 41.8 137.449 42.3 138.754 42.6C140.276 42.9 141.907 43.1 143.538 43.1C145.931 43.1 148.214 43 150.606 42.7C151.229 42.6096 151.813 42.5282 152.351 42.4532L152.353 42.4529C153.598 42.2793 154.599 42.1396 155.282 42V25.8C155.282 24.3 155.065 22.9 154.739 21.5C154.412 20.3 153.76 19.1 152.781 18.2C151.803 17.2 150.498 16.5 149.193 16.1C147.344 15.5 145.496 15.3 143.647 15.3C141.472 15.2 139.732 15.4 138.101 15.6ZM139.732 37.4C138.645 36.7 138.101 35.6 138.21 34.4C138.21 33.7 138.427 33.1 138.754 32.5C139.08 32 139.624 31.6 140.167 31.4C140.82 31.1 141.472 30.9 142.233 30.8C142.995 30.7 143.756 30.6 144.517 30.6C145.278 30.6 146.039 30.6 146.8 30.8L148.432 31.1V37.9C146.909 38.1 145.278 38.2 143.756 38.2C142.451 38.3 141.037 38 139.732 37.4ZM130.598 16.3C130.272 16.2 129.837 16.1 129.293 16C128.749 15.9 128.206 15.8 127.553 15.7C127.458 15.6854 127.365 15.6708 127.274 15.6565C126.742 15.573 126.278 15.5 125.813 15.5C125.526 15.5 125.239 15.4721 124.968 15.4458C124.726 15.4223 124.496 15.4 124.291 15.4C122.116 15.4 119.941 15.6 117.875 16C116.244 16.3 114.613 16.7 112.982 17.2V42.5H119.724V21.2C120.192 21.028 120.739 20.93 121.23 20.8423C121.309 20.828 121.388 20.814 121.464 20.8C122.225 20.7 122.986 20.6 123.856 20.6C125.052 20.6 126.14 20.7 127.227 20.9C127.988 21 128.749 21.2 129.511 21.4L130.598 16.3ZM40.0167 12.5V1.1C40.0167 0.7 40.3429 0.4 40.7779 0.4C45.0188 0.6 48.8248 1 52.1957 1.4C52.522 1.4 52.7394 1.6 52.8482 1.9V2.3C53.2831 4.8 53.7181 8.8 53.9356 12.5C53.9356 12.9 53.6094 13.3 53.1744 13.3H40.7779C40.3429 13.2 40.0167 12.9 40.0167 12.5ZM14.3538 48.9V37.5C14.3538 37.1 14.0276 36.8 13.5926 36.8H1.19615C0.761188 36.8 0.326223 37.1 0.326223 37.5V37.6C0.543706 41.2 0.97867 45.2 1.41363 47.8V48.2C1.52238 48.5 1.73986 48.7 2.06608 48.7C5.32831 49.1 9.24299 49.5 13.4839 49.7C14.0276 49.6 14.3538 49.3 14.3538 48.9ZM28.8164 12.4C28.8164 12.8 29.1426 13.2 29.6863 13.2H35.8846C36.3195 13.2 36.7545 12.9 36.7545 12.4V1C36.7545 0.5 36.3195 0.2 35.8846 0.2C34.2534 0.1 31.5349 0 29.6863 0C29.2514 0 28.8164 0.3 28.8164 0.8V12.4ZM27.1853 49.2V37.5C27.1853 37.1 26.8591 36.8 26.4241 36.8H18.486C18.051 36.8 17.6161 37.1 17.6161 37.6V49C17.6161 49.5 18.051 49.8 18.486 49.8C20.6608 49.9 23.923 49.9 26.3153 49.9C26.7503 50 27.1853 49.7 27.1853 49.2ZM17.6161 12.4C17.6161 12.8 17.9423 13.2 18.486 13.2H24.6842C25.1192 13.2 25.5542 12.9 25.5542 12.4V0.8C25.5542 0.4 25.2279 0 24.6842 0C23.731 0 22.5465 0.0265885 21.399 0.0523453C20.3212 0.0765396 19.276 0.1 18.486 0.1C17.9423 0.1 17.6161 0.5 17.6161 0.9V12.4ZM13.4839 33.8C13.9189 33.8 14.3538 33.5 14.3538 33V27.3C14.3538 26.9 14.0276 26.5 13.4839 26.5H0.869929C0.434964 26.5 0 26.8 0 27.3C0 28.1766 0.0289126 29.2659 0.0569208 30.3211C0.08323 31.3123 0.108741 32.2735 0.108741 33C0.108741 33.5 0.543705 33.8 0.97867 33.8H13.4839ZM0 22.7C0 23.1 0.326223 23.5 0.869929 23.5H13.4839C13.9189 23.5 14.3538 23.2 14.3538 22.7V17C14.3538 16.6 14.0276 16.2 13.4839 16.2H1.08741C0.543706 16.2 0.217482 16.6 0.217482 17C0.108741 18.5 0 21 0 22.7ZM14.3538 12.5V1.1C14.3538 0.7 14.0276 0.4 13.5926 0.4C9.35173 0.6 5.43706 0.9 2.17482 1.4C1.8486 1.4 1.63112 1.6 1.52238 1.9V2.3C1.08741 4.8 0.652447 8.8 0.434964 12.4C0.434964 12.8 0.761188 13.2 1.19615 13.2H13.7014C14.0276 13.2 14.3538 12.9 14.3538 12.5ZM40.0167 33.9C40.0167 34.4 40.2342 34.9 40.6692 35.3L52.522 46.2C52.522 46.2 53.1744 46.8 53.2831 46C54.0443 40.3 54.3706 34.6 54.4793 28.8C54.4793 28.4 54.1531 28 53.6094 28H40.6692C40.2342 28 40.0167 28.3 39.908 28.6V33.9H40.0167ZM54.3083 19.9569C54.284 18.8592 54.2618 17.8582 54.2618 17C54.2618 16.5 53.8268 16.2 53.3919 16.2H40.8867C40.4517 16.2 40.0167 16.5 40.0167 17V24.2C40.0167 24.6 40.3429 25 40.8867 25H53.6094C54.0443 25 54.3706 24.7 54.3706 24.3C54.3706 22.7647 54.3379 21.2895 54.3083 19.9569ZM50.1296 48.2L38.0594 37.1C37.8419 36.9 37.5157 36.8 37.1895 36.8H31.2087C30.7737 36.8 30.3388 37.1 30.3388 37.6V49.2C30.3388 49.6 30.665 50 31.2087 50C37.4069 49.9 43.7139 49.6 49.9122 48.9C49.9122 48.9 50.7821 48.8 50.1296 48.2ZM101.238 42.5C101.06 42.264 100.879 42.0214 100.694 41.774C99.8609 40.6587 98.9547 39.4459 97.9757 38.3C96.7796 36.8 95.4747 35.4 94.0611 34C92.7023 32.6505 91.2877 31.3495 89.8202 30.1C88.4065 28.9 86.8841 27.8 85.4705 26.9V42.6H78.5111V7.6H85.4705V22C86.6667 20.9 87.9716 19.7 89.2764 18.4C89.9289 17.75 90.5813 17.125 91.2338 16.5C91.8862 15.875 92.5387 15.25 93.1911 14.6C93.8844 13.9093 94.547 13.2187 95.1952 12.543C95.767 11.9469 96.3277 11.3625 96.8883 10.8C98.0845 9.6 99.1719 8.5 100.042 7.5H108.306C107.672 8.18895 107.008 8.87789 106.329 9.58172C105.727 10.206 105.114 10.8419 104.5 11.5C103.195 12.9 101.782 14.3 100.368 15.7C98.9544 17.1 97.5408 18.5 96.0184 19.9C94.6597 21.2495 93.245 22.5505 91.7775 23.8C93.2999 24.9 94.931 26.1 96.4534 27.6C98.0845 29 99.6069 30.6 101.129 32.2C102.652 33.8 104.174 35.5 105.588 37.3C107.001 39.1 108.306 40.8 109.502 42.6H101.238V42.5Z" fill="white"/>
</svg>
